<svg xmlns="http://www.w3.org/2000/svg" width="1200" height="560" viewBox="0 0 1200 560" role="img" aria-labelledby="title desc">
  <title id="title">Scopeguard review package</title>
  <desc id="desc">A visual stack of the documents sent to counsel for review.</desc>
  <rect width="1200" height="560" fill="#F8FAFC"/>
  <text x="70" y="72" font-family="Arial, sans-serif" font-size="34" font-weight="700" fill="#17365D">변호사에게 보내는 기본 묶음</text>
  <text x="70" y="108" font-family="Arial, sans-serif" font-size="18" fill="#52616F">커버 문서로 검토 범위를 정하고, XLSX로 답변을 다시 회수합니다.</text>

  <g transform="translate(96 166)">
    <rect x="0" y="0" width="230" height="250" rx="16" fill="#FFFFFF" stroke="#2563EB" stroke-width="2"/>
    <rect x="0" y="0" width="230" height="52" rx="16" fill="#DBEAFE"/>
    <text x="24" y="34" font-family="Arial, sans-serif" font-size="19" font-weight="700" fill="#1D4ED8">22 DOCX</text>
    <text x="24" y="88" font-family="Arial, sans-serif" font-size="22" font-weight="700" fill="#17365D">검토 요청서</text>
    <text x="24" y="124" font-family="Arial, sans-serif" font-size="16" fill="#3F3F46">검토 범위</text>
    <text x="24" y="152" font-family="Arial, sans-serif" font-size="16" fill="#3F3F46">전달 파일 목록</text>
    <text x="24" y="180" font-family="Arial, sans-serif" font-size="16" fill="#3F3F46">NDA/IP 질문</text>
    <text x="24" y="208" font-family="Arial, sans-serif" font-size="16" fill="#3F3F46">회신 형식</text>
  </g>

  <g transform="translate(360 166)">
    <rect x="0" y="0" width="230" height="250" rx="16" fill="#FFFFFF" stroke="#16A34A" stroke-width="2"/>
    <rect x="0" y="0" width="230" height="52" rx="16" fill="#DCFCE7"/>
    <text x="24" y="34" font-family="Arial, sans-serif" font-size="19" font-weight="700" fill="#166534">03 DOCX</text>
    <text x="24" y="88" font-family="Arial, sans-serif" font-size="22" font-weight="700" fill="#17365D">계약서 초안</text>
    <text x="24" y="124" font-family="Arial, sans-serif" font-size="16" fill="#3F3F46">착수 조건</text>
    <text x="24" y="152" font-family="Arial, sans-serif" font-size="16" fill="#3F3F46">검수 / 수정</text>
    <text x="24" y="180" font-family="Arial, sans-serif" font-size="16" fill="#3F3F46">변경요청</text>
    <text x="24" y="208" font-family="Arial, sans-serif" font-size="16" fill="#3F3F46">대금 / 권리</text>
  </g>

  <g transform="translate(624 166)">
    <rect x="0" y="0" width="230" height="250" rx="16" fill="#FFFFFF" stroke="#F59E0B" stroke-width="2"/>
    <rect x="0" y="0" width="230" height="52" rx="16" fill="#FEF3C7"/>
    <text x="24" y="34" font-family="Arial, sans-serif" font-size="19" font-weight="700" fill="#92400E">11 / 13 DOCX</text>
    <text x="24" y="88" font-family="Arial, sans-serif" font-size="22" font-weight="700" fill="#17365D">권리 / 보안</text>
    <text x="24" y="124" font-family="Arial, sans-serif" font-size="16" fill="#3F3F46">소스코드 인도</text>
    <text x="24" y="152" font-family="Arial, sans-serif" font-size="16" fill="#3F3F46">사전보유자산</text>
    <text x="24" y="180" font-family="Arial, sans-serif" font-size="16" fill="#3F3F46">개인정보</text>
    <text x="24" y="208" font-family="Arial, sans-serif" font-size="16" fill="#3F3F46">접근통제</text>
  </g>

  <g transform="translate(888 166)">
    <rect x="0" y="0" width="230" height="250" rx="16" fill="#FFFFFF" stroke="#DB2777" stroke-width="2"/>
    <rect x="0" y="0" width="230" height="52" rx="16" fill="#FCE7F3"/>
    <text x="24" y="34" font-family="Arial, sans-serif" font-size="19" font-weight="700" fill="#9D174D">21 XLSX</text>
    <text x="24" y="88" font-family="Arial, sans-serif" font-size="22" font-weight="700" fill="#17365D">리스크 회수표</text>
    <text x="24" y="124" font-family="Arial, sans-serif" font-size="16" fill="#3F3F46">위험도</text>
    <text x="24" y="152" font-family="Arial, sans-serif" font-size="16" fill="#3F3F46">문제</text>
    <text x="24" y="180" font-family="Arial, sans-serif" font-size="16" fill="#3F3F46">제안 문구</text>
    <text x="24" y="208" font-family="Arial, sans-serif" font-size="16" fill="#3F3F46">지킬 선</text>
  </g>

  <rect x="214" y="456" width="772" height="54" rx="16" fill="#FFFFFF" stroke="#CBD5E1" stroke-width="2"/>
  <text x="264" y="490" font-family="Arial, sans-serif" font-size="20" font-weight="700" fill="#334155">전체 전달은 output/scopeguard_sw_contract_docs.zip 하나로 충분합니다.</text>
</svg>
